<svg width="64" height="64" viewBox="0 0 64 64" fill="none" xmlns="http://www.w3.org/2000/svg" role="img" aria-label="MedicTranslate logo">
  <defs>
    <linearGradient id="mtg" x1="10" y1="10" x2="54" y2="54" gradientUnits="userSpaceOnUse">
      <stop stop-color="#22C55E"/>
      <stop offset="1" stop-color="#16A34A"/>
    </linearGradient>
  </defs>
  <rect x="6" y="6" width="52" height="52" rx="14" fill="url(#mtg)"/>
  <path d="M44.5 28.2c0-6-5-10.9-11.2-10.9S22.1 22.2 22.1 28.2c0 3.7 2 7 5 8.9v5.4c0 .7.8 1.1 1.4.7l6.2-3.6c.2-.1.4-.2.6-.2 5.4-1 9.2-5.6 9.2-11.2Z" fill="#0B3B1C" opacity=".12"/>
  <path d="M42.5 27.2c0-5.4-4.6-9.9-10.2-9.9S22.1 21.8 22.1 27.2c0 3.4 1.8 6.4 4.6 8.1v6.2l6.9-4c5.1-.8 8.9-5.1 8.9-10.3Z" fill="#F0FDF4" opacity=".95"/>
  <path d="M31.6 22.3c.6 0 1 .4 1 1v3.1h3.1c.6 0 1 .4 1 1s-.4 1-1 1h-3.1v3.1c0 .6-.4 1-1 1s-1-.4-1-1v-3.1h-3.1c-.6 0-1-.4-1-1s.4-1 1-1h3.1v-3.1c0-.6.4-1 1-1Z" fill="#16A34A"/>
  <path d="M25.4 45.8c-.5 0-.9-.4-.9-.9s.4-.9.9-.9h13.2c.5 0 .9.4.9.9s-.4.9-.9.9H25.4Z" fill="#DCFCE7" opacity=".9"/>
</svg>

